<svg width="332" height="491" viewBox="0 0 332 491" fill="none" xmlns="http://www.w3.org/2000/svg">
<g clip-path="url(#clip0_145_8439)">
<path d="M176.816 189.514C177.583 190.546 222.293 261.504 222.293 261.504L272.577 208.89L298.294 246.021C298.294 246.021 244.53 321.904 236.626 324.646C228.722 327.389 203.3 323.083 203.3 323.083L167.909 276.221L176.816 189.514Z" fill="#EBEBEB"/>
<path d="M222.764 277.724C221.896 275.094 221.575 272.314 221.82 269.555C221.54 266.81 221.73 264.037 222.38 261.356C223.25 263.986 223.581 266.765 223.354 269.525C223.613 272.272 223.413 275.043 222.764 277.724Z" fill="#263238"/>
<path d="M63.1249 136.429L55.398 155.51C55.398 155.51 15.7312 188.984 12.1332 194.145C8.53516 199.306 40.4455 366.172 40.4455 366.172C40.4455 366.172 38.3811 611.339 40.4455 611.339C42.51 611.339 69.9375 620.186 125.972 615.969C182.007 611.752 192.418 606.178 192.418 606.178L174.929 389.353L148.121 243.574L102.143 184.354L63.1249 136.429Z" fill="#EBEBEB"/>
<path d="M153.493 219.212C153.493 219.212 147.595 190.929 148.096 190.044C148.597 189.16 134.884 155.745 134.884 155.745C134.884 155.745 130.283 140.439 130.283 140.498C130.283 140.557 67.7894 129.94 67.7894 129.94L64.8402 139.377L148.185 244.693L156.737 289.904L165.585 277.577L153.493 219.212Z" fill="#F2CB62"/>
<path d="M209.263 432.086L195.696 268.966L184.578 205.292C182.975 196.218 179.576 187.554 174.58 179.811L142.139 161.025C138.82 157.057 135.718 152.913 132.849 148.609L148.214 187.863L153.611 219.213L156.944 291.144L174.639 387.7L191.98 600.043L229.671 592.67L209.263 432.086Z" fill="#EBEBEB"/>
<path d="M158.181 242.039L165.466 188.511L142.019 161.025L132.729 148.609L147.151 190.045L158.181 242.039Z" fill="#EBEBEB"/>
<path d="M121.14 341.928L177.794 261.356L276.386 291.172L201.8 387.67L109.195 357.559L121.14 341.928Z" fill="#F2CB62"/>
<path d="M247.6 287.457C247.6 287.941 247.457 288.414 247.188 288.817C246.919 289.219 246.536 289.533 246.089 289.718C245.642 289.903 245.15 289.952 244.675 289.857C244.2 289.763 243.764 289.53 243.421 289.187C243.079 288.845 242.846 288.409 242.751 287.934C242.657 287.459 242.706 286.967 242.891 286.52C243.076 286.073 243.39 285.69 243.792 285.421C244.195 285.152 244.668 285.009 245.152 285.009C245.802 285.009 246.424 285.267 246.883 285.726C247.342 286.185 247.6 286.807 247.6 287.457Z" fill="#263238"/>
<path d="M208.167 276.457C208.167 276.942 208.023 277.416 207.753 277.82C207.482 278.223 207.098 278.537 206.649 278.721C206.2 278.905 205.707 278.952 205.231 278.855C204.755 278.758 204.319 278.522 203.978 278.177C203.637 277.832 203.406 277.393 203.315 276.916C203.224 276.439 203.277 275.946 203.466 275.499C203.656 275.053 203.975 274.672 204.381 274.407C204.787 274.142 205.264 274.003 205.749 274.009C206.393 274.017 207.008 274.278 207.461 274.736C207.913 275.194 208.167 275.813 208.167 276.457Z" fill="#263238"/>
<path d="M161.956 209.539C161.808 209.539 163.017 214.788 164.698 221.336C165.592 225.226 166.694 229.066 168.001 232.837C168.149 232.837 166.91 227.588 165.259 221.188C163.607 214.788 162.103 209.509 161.956 209.539Z" fill="#263238"/>
<path d="M180.771 245.697C181.12 248.006 180.813 250.366 179.886 252.509C179.416 253.604 178.718 254.586 177.838 255.39C176.958 256.193 175.917 256.8 174.784 257.169C173.247 257.658 171.61 257.738 170.033 257.402C168.456 257.066 166.993 256.325 165.789 255.252C161.746 250.542 159.722 244.428 160.156 238.235C160.301 236.305 160.982 234.453 162.124 232.89C163.265 231.327 164.82 230.114 166.615 229.388C168.648 228.844 170.806 229.002 172.738 229.837C174.67 230.672 176.264 232.135 177.261 233.988" fill="#E0E0E0"/>
<path d="M177.261 234.047C176.879 233.253 176.371 232.525 175.757 231.894C175.045 231.152 174.23 230.517 173.338 230.006C172.136 229.332 170.793 228.948 169.416 228.885C168.613 228.863 167.81 228.942 167.027 229.121C166.162 229.306 165.335 229.635 164.579 230.095C162.988 231.197 161.733 232.718 160.952 234.489C160.067 236.419 159.652 238.531 159.743 240.653C159.844 242.899 160.251 245.122 160.952 247.259C161.837 250.642 163.656 253.708 166.201 256.107C167.466 257.091 168.975 257.712 170.566 257.906C172.012 258.08 173.479 257.949 174.872 257.522C175.899 257.263 176.843 256.745 177.615 256.018C178.32 255.398 178.935 254.684 179.443 253.895C180.199 252.596 180.699 251.164 180.918 249.677C181.056 248.699 181.056 247.706 180.918 246.728C180.946 246.483 180.946 246.236 180.918 245.991C180.924 245.902 180.924 245.814 180.918 245.725C181.017 246.995 180.968 248.272 180.77 249.53C180.523 250.972 180.003 252.353 179.237 253.6C178.736 254.351 178.13 255.026 177.438 255.605C176.709 256.264 175.827 256.73 174.872 256.962C173.5 257.386 172.047 257.479 170.632 257.233C169.217 256.987 167.88 256.409 166.732 255.546C164.311 253.238 162.567 250.311 161.689 247.082C160.153 243.096 160.153 238.681 161.689 234.695C162.416 233.016 163.589 231.568 165.081 230.508C165.778 230.064 166.546 229.745 167.351 229.564C169.397 229.034 171.567 229.298 173.427 230.301C174.32 230.762 175.136 231.359 175.845 232.071C176.365 232.694 176.838 233.354 177.261 234.047Z" fill="#263238"/>
<path d="M183.399 245.254C183.748 247.554 183.441 249.905 182.514 252.037C182.046 253.137 181.349 254.124 180.469 254.932C179.589 255.741 178.547 256.353 177.412 256.727C175.875 257.215 174.238 257.296 172.66 256.959C171.083 256.623 169.621 255.882 168.417 254.81C164.374 250.099 162.35 243.985 162.784 237.793C162.919 235.864 163.594 234.012 164.73 232.448C165.867 230.883 167.42 229.67 169.213 228.945C171.247 228.397 173.407 228.55 175.344 229.38C177.281 230.209 178.882 231.666 179.889 233.516" fill="#E0E0E0"/>
<path d="M179.889 233.575C179.51 232.788 179.002 232.07 178.385 231.451C177.681 230.701 176.865 230.065 175.967 229.564C174.756 228.885 173.402 228.501 172.015 228.443C171.212 228.407 170.407 228.487 169.626 228.679C168.768 228.856 167.949 229.185 167.208 229.652C165.604 230.74 164.345 232.265 163.58 234.046C162.692 235.965 162.278 238.069 162.371 240.181C162.473 242.437 162.88 244.669 163.58 246.816C164.473 250.197 166.291 253.261 168.83 255.664C170.095 256.648 171.604 257.27 173.195 257.463C174.641 257.636 176.108 257.506 177.501 257.08C178.54 256.827 179.495 256.309 180.273 255.576C180.978 254.956 181.593 254.241 182.101 253.452C182.857 252.153 183.358 250.722 183.576 249.235C183.714 248.257 183.714 247.264 183.576 246.286C183.59 246.04 183.59 245.794 183.576 245.548C183.582 245.46 183.582 245.371 183.576 245.283C183.673 246.553 183.614 247.831 183.399 249.087C183.152 250.529 182.631 251.911 181.865 253.157C181.384 253.914 180.787 254.591 180.096 255.163C179.367 255.822 178.485 256.288 177.53 256.519C176.16 256.948 174.709 257.046 173.294 256.805C171.879 256.564 170.541 255.991 169.39 255.133C166.969 252.824 165.225 249.898 164.347 246.669C162.811 242.683 162.811 238.268 164.347 234.282C165.066 232.598 166.241 231.148 167.739 230.094C168.433 229.646 169.202 229.327 170.01 229.151C170.752 228.962 171.515 228.873 172.281 228.885C173.602 228.907 174.898 229.251 176.056 229.888C176.953 230.341 177.77 230.939 178.474 231.658C178.982 232.269 179.454 232.909 179.889 233.575Z" fill="#263238"/>
<path d="M175.344 233.457C176.521 233.005 177.811 232.941 179.027 233.275C180.242 233.61 181.319 234.325 182.098 235.315C183.604 237.371 184.269 239.923 183.956 242.452C183.908 243.747 183.575 245.016 182.983 246.168C182.677 246.747 182.258 247.259 181.752 247.675C181.245 248.09 180.661 248.4 180.034 248.587C179.109 248.777 178.152 248.742 177.244 248.485C176.336 248.228 175.502 247.758 174.814 247.112C173.651 246.128 172.715 244.904 172.068 243.525C171.422 242.146 171.081 240.643 171.068 239.12C170.979 238.093 171.215 237.064 171.745 236.18C172.275 235.295 173.07 234.601 174.017 234.195" fill="#E0E0E0"/>
<path d="M174.018 234.195C173.872 234.167 173.722 234.167 173.575 234.195C173.159 234.338 172.785 234.581 172.484 234.902C171.946 235.499 171.534 236.198 171.275 236.959C171.017 237.72 170.916 238.525 170.98 239.326C171.016 241.712 171.869 244.013 173.399 245.844C174.267 246.958 175.389 247.848 176.672 248.439C177.371 248.794 178.144 248.979 178.928 248.979C179.712 248.979 180.485 248.794 181.184 248.439C182.496 247.596 183.443 246.291 183.839 244.782C184.205 243.438 184.344 242.043 184.252 240.653C184.235 239.462 183.979 238.287 183.498 237.197C183.016 236.108 182.32 235.126 181.45 234.313C180.201 233.265 178.593 232.746 176.967 232.867C176.542 232.924 176.126 233.033 175.728 233.192C175.463 233.339 175.345 233.398 175.345 233.428C175.883 233.264 176.436 233.155 176.997 233.103C178.529 233.055 180.021 233.605 181.155 234.637C181.965 235.422 182.61 236.362 183.05 237.4C183.491 238.438 183.719 239.555 183.721 240.683C183.775 242.015 183.626 243.348 183.278 244.635C182.9 245.985 182.053 247.156 180.889 247.938C180.27 248.242 179.589 248.401 178.899 248.401C178.209 248.401 177.528 248.242 176.908 247.938C175.704 247.38 174.644 246.553 173.811 245.52C172.334 243.784 171.483 241.603 171.393 239.326C171.248 237.8 171.703 236.276 172.661 235.079C173.06 234.709 173.519 234.41 174.018 234.195Z" fill="#263238"/>
<path d="M174.518 252.892C174.518 252.892 174.518 252.509 174.902 251.978C175.24 251.273 175.772 250.68 176.435 250.267C177.139 249.878 177.88 249.562 178.647 249.323C179.237 249.117 179.621 248.97 179.621 248.881C179.271 248.801 178.908 248.801 178.559 248.881C177.707 249.016 176.888 249.306 176.141 249.736C175.361 250.205 174.775 250.937 174.489 251.801C174.312 252.479 174.43 252.921 174.518 252.892Z" fill="#263238"/>
<path d="M168.56 233.752C168.56 233.752 168.826 234.106 169.445 234.371C170.262 234.707 171.146 234.848 172.027 234.781C172.907 234.715 173.76 234.443 174.517 233.988C175.078 233.604 175.343 233.28 175.284 233.221C174.23 233.688 173.12 234.015 171.981 234.194C170.828 234.168 169.682 234.019 168.56 233.752Z" fill="#263238"/>
<path d="M122.999 273.389C120.05 274.245 116.687 272.062 113.797 273.183C113.274 273.402 112.8 273.721 112.4 274.124C112.001 274.526 111.685 275.003 111.47 275.527C111.255 276.052 111.145 276.613 111.147 277.18C111.15 277.747 111.263 278.308 111.482 278.831C111.701 279.354 112.021 279.828 112.423 280.227C112.825 280.627 113.302 280.943 113.826 281.158C114.351 281.373 114.913 281.482 115.479 281.48C116.046 281.478 116.607 281.365 117.13 281.146C120.079 279.789 120.757 275.542 123.589 273.861" fill="#263238"/>
<path d="M98.9032 284.035C99.8257 283.732 100.723 283.358 101.587 282.915L101.115 281.941C99.667 282.797 98.0572 283.344 96.3872 283.547C94.7173 283.75 93.0234 283.605 91.4123 283.121C89.2344 282.187 87.2634 280.83 85.6131 279.129C83.9629 277.428 82.6661 275.417 81.7979 273.212V273.005C80.7362 270.882 66.1377 227.411 63.4539 219.123C62.0951 215.698 62.068 211.888 63.378 208.444C64.6881 205 67.2403 202.171 70.532 200.514C70.9449 200.278 80.7067 195.205 90.7634 207.563C101.292 220.51 119.695 245.902 121.406 249.205L122.202 250.621C124.532 254.573 129.398 262.831 125.151 269.909C120.403 277.754 114.446 277.223 114.21 277.223V278.284C114.475 278.284 121.052 278.933 126.183 270.44C130.814 262.86 125.711 254.219 123.234 250.061L122.467 248.704C120.757 245.519 102.265 219.861 91.7367 206.884C81.2081 193.908 70.2665 199.511 70.1486 199.57C66.6844 201.396 64.004 204.421 62.609 208.079C61.2139 211.738 61.1997 215.78 62.5691 219.448C64.781 226.261 79.8219 271.236 80.9426 273.477V273.684C81.8589 276.021 83.2339 278.152 84.9864 279.95C86.7389 281.748 88.8334 283.177 91.1468 284.153C93.6776 284.95 96.3978 284.908 98.9032 284.035Z" fill="#263238"/>
<path d="M65.4258 227.618C65.2987 225.688 65.4577 223.75 65.8977 221.867C66.427 219.829 67.3159 217.901 68.5226 216.175C69.9898 214.07 71.8777 212.293 74.067 210.955C78.1272 208.596 82.881 207.72 87.5154 208.478C89.4315 208.828 91.2947 209.423 93.0598 210.247C93.0598 210.247 93.0598 210.247 92.7059 209.982C92.3814 209.778 92.0467 209.591 91.7032 209.421C90.3959 208.814 89.0193 208.368 87.6039 208.094C85.4862 207.672 83.3122 207.612 81.1746 207.917C78.56 208.268 76.0426 209.14 73.7721 210.483C71.5043 211.858 69.5621 213.71 68.0801 215.91C66.8717 217.702 66.002 219.702 65.5143 221.808C65.1739 223.216 65.0546 224.669 65.1604 226.114C65.1604 226.615 65.1604 226.999 65.3078 227.264C65.4553 227.529 65.3964 227.647 65.4258 227.618Z" fill="#263238"/>
<path d="M55.4009 155.54L104.299 216.116L148.094 243.603L63.1278 136.458L55.4009 155.54Z" fill="#EBEBEB"/>
<path d="M12.1365 194.174C12.1365 194.174 1.87328 210.336 0.339697 226.851C-0.309126 233.31 15.7935 354.611 17.5925 360.067C19.3915 365.523 40.8027 379.148 47.0845 381.891C53.3663 384.634 131.196 410.527 163.018 410.085L169.83 350.069L87.9899 336.414C87.9899 336.414 78.4345 327.331 73.4504 325.502L66.6082 258.673L56.6105 205.027C56.6105 205.027 28.1212 187.391 12.1365 194.174Z" fill="#EBEBEB"/>
<path d="M196.05 266.812C195.637 266.812 191.243 249.117 186.229 227.175C181.216 205.233 177.382 187.302 177.883 187.214C178.385 187.125 182.69 204.909 187.734 226.821C192.777 248.734 196.463 266.695 196.05 266.812Z" fill="#263238"/>
<path d="M62.5965 252.744C62.5965 252.744 62.5965 253.157 62.8324 253.983C63.0683 254.808 63.2158 256.106 63.4812 257.699C64.0121 261.031 64.7789 265.838 65.7522 272.061C67.6692 284.625 70.4709 302.792 73.951 325.412L73.6265 325.029C76.3719 326.274 78.9324 327.891 81.2355 329.836C83.6538 331.753 86.0131 333.818 88.3725 336L88.0776 335.852L169.947 349.36H170.596V350.009C168.473 368.766 166.202 388.997 163.813 410.025V410.733H163.135C147.915 410.012 132.817 407.659 118.1 403.714C99.2256 399.201 81.0585 393.804 63.6288 388.23C59.2934 386.815 54.9876 385.281 50.7408 383.895C46.4926 382.433 42.4412 380.452 38.6785 377.997C34.933 375.696 31.2761 373.278 27.796 370.742C24.2311 368.3 20.9819 365.428 18.1225 362.189C17.3927 361.355 16.9124 360.333 16.7365 359.24C16.4711 358.148 16.2941 357.146 16.1466 356.113C15.7927 354.049 15.4683 352.014 15.1439 350.009C14.5541 345.939 13.9642 341.957 13.3744 338.005L10.1893 315.09C8.18382 300.344 6.38479 286.483 4.82171 273.801C3.25863 261.12 1.87246 249.795 0.899224 239.738C0.663288 237.231 0.368425 234.813 0.220965 232.454C-0.0736551 230.192 -0.0736551 227.902 0.220965 225.641C0.86135 221.734 1.78793 217.88 2.99322 214.109C4.63302 208.89 6.75578 203.835 9.33398 199.01C10.1892 197.358 10.956 196.06 11.4574 195.323C11.6978 194.907 11.9741 194.512 12.2832 194.143L11.5754 195.412C11.133 196.237 10.4252 197.476 9.5994 199.157C7.16108 204.021 5.13862 209.082 3.55358 214.286C2.40407 218.043 1.52682 221.877 0.928744 225.759C0.665326 227.963 0.665326 230.19 0.928744 232.395C1.1057 234.724 1.40062 237.143 1.66604 239.65C2.75725 249.677 4.20237 261.061 5.82443 273.654C7.44649 286.247 9.36348 300.197 11.3689 314.943C12.411 322.335 13.4924 329.974 14.6131 337.858C15.2029 341.78 15.8222 345.762 16.4416 349.802L17.4148 355.907C17.5917 356.91 17.7687 357.942 18.0046 358.856C18.1272 359.806 18.5273 360.699 19.1548 361.422C21.9409 364.541 25.1007 367.304 28.5627 369.65C32.0133 372.187 35.6408 374.575 39.3568 376.846C43.0336 379.287 46.9953 381.267 51.1536 382.745C55.371 384.219 59.6768 385.694 64.0122 387.051C81.4124 392.595 99.4025 397.963 118.366 402.475C132.961 406.376 147.928 408.718 163.017 409.464L162.279 410.143C164.698 389.115 166.998 368.854 169.151 350.127L169.741 350.893L87.9006 336.973H87.7237C85.3938 334.791 83.064 332.726 80.6751 330.839C78.4723 328.951 76.0214 327.373 73.3906 326.15L73.0957 326.002V325.737C69.8221 303.057 67.1973 284.861 65.3688 272.268C64.5135 266.074 63.8352 261.238 63.3633 257.905C63.1569 256.313 63.0094 254.956 62.8915 254.16C62.7592 253.695 62.6606 253.222 62.5965 252.744Z" fill="#263238"/>
<path d="M57.7599 234.725C56.3067 232.403 55.0443 229.967 53.9849 227.441C51.2553 221.493 47.83 215.89 43.7807 210.748C39.6543 205.709 34.2588 201.86 28.15 199.6C25.5584 198.847 22.9173 198.275 20.2461 197.89C20.9594 197.66 21.7123 197.58 22.458 197.654C24.5065 197.669 26.5424 197.977 28.5039 198.568C34.9615 200.609 40.6749 204.507 44.931 209.775C49.1086 214.982 52.4971 220.775 54.9877 226.969C56.1784 229.451 57.1075 232.051 57.7599 234.725Z" fill="#263238"/>
<path d="M44.6665 336.649C48.09 332.587 52.4891 329.459 57.4514 327.561C62.4137 325.663 67.7768 325.056 73.0379 325.796C67.9243 326.314 62.8815 327.382 57.9969 328.981C53.3015 331.072 48.8343 333.642 44.6665 336.649Z" fill="#263238"/>
<path d="M53.955 346.145C55.3576 341.286 57.9505 336.853 61.4986 333.248C65.0467 329.643 69.4381 326.98 74.2749 325.501C70.0649 328.06 66.114 331.024 62.4781 334.348C59.2829 338.012 56.43 341.961 53.955 346.145Z" fill="#263238"/>
<path d="M148.095 243.602C146.908 243.101 145.773 242.489 144.703 241.773L135.501 236.258L103.916 216.735L89.1696 198.597C75.6622 181.845 63.541 166.687 55.1358 156.04L54.9293 155.775V155.509L60.8277 141.618L62.4793 137.902C62.6375 137.447 62.8664 137.019 63.1576 136.634C63.0795 137.112 62.9407 137.578 62.7447 138.02C62.3908 139.053 61.9189 140.291 61.3586 141.825C60.0019 145.364 58.1735 150.083 55.9026 155.893V155.362C64.5143 165.831 76.7829 180.872 90.3197 197.653L105.066 215.82L104.889 215.673L136.209 235.639L145.057 241.537C146.121 242.146 147.137 242.836 148.095 243.602Z" fill="#263238"/>
<path d="M155.231 254.986C155.226 253.662 155.334 252.34 155.556 251.034C155.91 248.262 156.352 244.664 156.913 240.299C158.122 231.216 159.862 218.564 161.985 204.319V204.791C161.071 203.08 160.068 201.252 159.036 199.394C151.545 185.474 144.821 172.851 140.043 163.62L134.469 152.708C133.731 151.395 133.1 150.024 132.582 148.609C133.495 149.799 134.295 151.073 134.971 152.413L141.016 163.119C146.03 172.173 152.813 184.736 160.363 198.509C161.366 200.367 162.339 202.196 163.312 203.906V204.142V204.408C161.159 218.623 159.183 231.245 157.709 240.299C156.972 244.635 156.352 248.203 155.88 250.975C155.816 252.333 155.599 253.678 155.231 254.986Z" fill="#263238"/>
<path d="M65.543 202.462L68.0499 200.928L65.5135 202.462C61.3264 195.87 57.6489 188.969 54.513 181.817L53.9821 180.549C51.0329 173.323 47.6119 165.154 49.057 157.221V157.073C49.7885 153.593 51.6939 150.469 54.454 148.226L55.2503 147.518H57.6097V152.089L58.1405 152.709L57.6097 153.21V153.416C56.2648 154.725 55.3494 156.412 54.9848 158.253V158.4C53.9231 164.594 56.9314 171.878 59.5857 178.308L60.1165 179.576C63.1394 186.408 66.6891 192.995 70.7336 199.276L65.543 202.462Z" fill="#263238"/>
<path d="M173.398 382.214C173.617 382.934 173.755 383.676 173.811 384.426C174.017 386.018 174.312 388.142 174.666 390.796C175.403 396.341 176.377 404.362 177.615 414.39C179.886 434.238 182.688 461.577 185.254 492.072C187.819 522.566 189.648 549.994 190.769 569.931C191.3 579.899 191.712 587.98 191.919 593.524C191.919 596.208 192.066 598.331 192.125 599.953C192.196 600.699 192.196 601.449 192.125 602.195C191.963 601.468 191.874 600.727 191.86 599.983C191.86 598.361 191.565 596.237 191.359 593.554C190.946 587.832 190.385 579.81 189.707 569.96C188.321 550.053 186.315 522.537 183.809 492.16C181.302 461.783 178.529 434.297 176.406 414.39C175.433 404.569 174.666 396.695 174.076 390.796C173.84 388.142 173.663 386.018 173.516 384.396C173.433 383.672 173.393 382.943 173.398 382.214Z" fill="#263238"/>
<path d="M135.562 451.402C135.562 451.402 134.913 452.169 133.586 453.319C132.259 454.469 130.254 456.121 127.688 458.067C121.206 463.234 114.366 467.935 107.22 472.135C103.245 474.42 99.1271 476.45 94.8928 478.211C91.4306 479.605 87.8725 480.748 84.2462 481.632C81.796 482.249 79.3012 482.673 76.7847 482.9C75.867 483.053 74.9302 483.053 74.0125 482.9C74.0125 482.634 77.9054 482.192 83.9512 480.481C87.499 479.483 90.9768 478.252 94.3619 476.795C98.4989 474.989 102.535 472.961 106.454 470.72C114.77 465.912 121.878 460.781 127.098 457.124C129.785 455.024 132.613 453.113 135.562 451.402Z" fill="#263238"/>
<path d="M140.192 462.905C139.778 463.765 139.241 464.559 138.599 465.264C137.039 467.348 135.334 469.319 133.497 471.163C121.391 483.589 105.71 491.929 88.6396 495.022C86.0891 495.516 83.5072 495.831 80.9127 495.966C79.9335 496.089 78.9427 496.089 77.9635 495.966C77.9635 495.671 81.9745 495.376 88.3447 493.96C96.6338 492.106 104.631 489.129 112.115 485.113C119.626 481.144 126.569 476.184 132.76 470.367C137.242 465.913 139.867 462.728 140.192 462.905Z" fill="#263238"/>
<path d="M77.0505 497.027C76.0257 494.454 75.4857 491.715 75.4579 488.946C74.9304 486.228 74.9304 483.435 75.4579 480.718C77.0251 486.002 77.5854 491.535 77.1094 497.027H77.0505Z" fill="#263238"/>
<path d="M69.9698 106.17C68.8839 106.136 67.8302 105.793 66.9319 105.182C66.0336 104.571 65.3279 103.717 64.8972 102.719C63.9499 100.633 63.3712 98.3975 63.1867 96.1132C61.8006 86.0859 60.4439 76.0291 59.0577 65.9723C57.6384 57.484 56.938 48.891 56.9638 40.2848C57.6534 31.9442 60.2464 23.8729 64.5433 16.6912C69.0851 7.8436 87.4881 -7.46273 118.012 1.17842" fill="#263238"/>
<path d="M68.406 70.0122C67.9931 70.0122 52.0969 65.5294 52.8932 81.809C53.6895 98.0885 69.7626 93.8122 69.7626 93.3403C69.7626 92.8685 68.406 70.0122 68.406 70.0122Z" fill="#FFBE9D"/>
<path d="M64.5135 87.3241C64.5135 87.3241 64.2481 87.5305 63.7762 87.7665C63.1237 88.0805 62.3784 88.1435 61.6823 87.9434C60.608 87.3266 59.7152 86.4375 59.0939 85.3657C58.4726 84.294 58.1446 83.0774 58.1433 81.8386C58.0297 80.4644 58.2314 79.0825 58.7331 77.7981C58.855 77.2839 59.1017 76.8078 59.4515 76.4117C59.8013 76.0156 60.2434 75.7118 60.7386 75.5273C61.0581 75.424 61.4036 75.4352 61.7157 75.559C62.0279 75.6828 62.2873 75.9114 62.4492 76.2056C62.6851 76.648 62.5966 76.9724 62.6851 77.0019C62.7735 77.0314 63.0095 76.707 62.6851 76.0581C62.6439 75.8584 62.5625 75.6691 62.4459 75.5018C62.3293 75.3345 62.1798 75.1927 62.0067 75.0849C61.5519 74.7673 60.9909 74.6403 60.4436 74.731C59.7653 74.8824 59.1374 75.2062 58.6208 75.6712C58.1042 76.1361 57.7162 76.7265 57.4944 77.3853C56.8957 78.8204 56.6431 80.3762 56.7571 81.9271C56.7508 83.3702 57.1698 84.7832 57.9618 85.9896C58.7538 87.196 59.8838 88.1422 61.2105 88.7102C61.6533 88.8065 62.1116 88.8063 62.5544 88.7096C62.9971 88.6129 63.4139 88.422 63.7762 88.1499C64.5135 87.7075 64.5725 87.3536 64.5135 87.3241Z" fill="#EB996E"/>
<path d="M151.368 100.035C151.368 88.6215 149.244 65.1459 147.15 44.0001C146.056 32.9919 140.857 22.799 132.589 15.4492C124.321 8.09926 113.59 4.13091 102.529 4.3334H100.258C75.6914 6.22089 63.5997 28.1039 66.1655 52.6118L69.6161 130.707L128.158 162.823L127.951 127.816C127.951 127.816 151.515 123.658 151.368 100.035Z" fill="#FFBE9D"/>
<path d="M127.981 127.757C117.085 128.173 106.313 125.328 97.0435 119.588C97.0435 119.588 104.475 136.693 128.01 134.157L127.981 127.757Z" fill="#EB996E"/>
<path d="M139.335 59.3957C139.36 60.2727 139.04 61.1245 138.445 61.7692C137.85 62.4138 137.027 62.8004 136.15 62.8462C135.723 62.8908 135.292 62.8494 134.881 62.7244C134.47 62.5995 134.088 62.3934 133.758 62.1185C133.428 61.8436 133.157 61.5054 132.96 61.1238C132.763 60.7423 132.644 60.3251 132.611 59.897C132.587 59.02 132.906 58.1682 133.502 57.5235C134.097 56.8788 134.92 56.4923 135.796 56.4465C136.223 56.4059 136.653 56.4502 137.062 56.5767C137.471 56.7033 137.851 56.9096 138.18 57.1838C138.509 57.458 138.781 57.7946 138.979 58.1742C139.177 58.5539 139.298 58.969 139.335 59.3957Z" fill="#263238"/>
<path d="M142.61 54.3225C142.197 54.7649 139.661 52.9069 135.974 52.9953C132.288 53.0838 129.722 54.9418 129.309 54.4994C128.896 54.057 129.545 53.4967 130.666 52.6414C132.226 51.5299 134.088 50.9227 136.004 50.9014C137.888 50.8564 139.738 51.4143 141.283 52.4939C142.433 53.3197 142.816 54.116 142.61 54.3225Z" fill="#263238"/>
<path d="M104.033 60.1332C104.065 61.0123 103.748 61.8683 103.151 62.5147C102.554 63.1611 101.726 63.5454 100.847 63.5837C100.422 63.6283 99.9917 63.5867 99.5826 63.4614C99.1736 63.3361 98.7939 63.1296 98.4663 62.8544C98.1388 62.5791 97.8701 62.2407 97.6762 61.8593C97.4823 61.4779 97.3673 61.0614 97.3379 60.6345C97.3059 59.7554 97.6228 58.8993 98.2195 58.2529C98.8161 57.6065 99.6442 57.2223 100.523 57.184C100.949 57.1394 101.379 57.181 101.788 57.3063C102.197 57.4316 102.577 57.638 102.904 57.9133C103.232 58.1885 103.5 58.527 103.694 58.9084C103.888 59.2898 104.003 59.7063 104.033 60.1332Z" fill="#263238"/>
<path d="M106.422 53.8503C106.068 54.3222 103.296 52.7886 99.698 53.2605C96.1 53.7323 93.7996 55.8557 93.2393 55.4724C92.6789 55.089 93.2393 54.4696 94.3895 53.4669C95.8046 52.1805 97.5907 51.3752 99.4917 51.1665C101.361 50.9137 103.262 51.265 104.918 52.1692C106.127 52.995 106.599 53.8503 106.422 53.8503Z" fill="#263238"/>
<path d="M120.283 83.5784C122.191 82.9351 124.173 82.5386 126.182 82.3987C127.125 82.3987 127.981 82.1038 128.128 81.455C128.188 80.4929 127.951 79.5357 127.45 78.7122L124.501 71.7226C121.845 65.7834 119.675 59.6388 118.012 53.3491C121.111 59.0372 123.773 64.9526 125.975 71.0443C126.919 73.5216 127.833 75.8515 128.718 78.0929C129.33 79.2078 129.528 80.5029 129.278 81.7499C129.15 82.077 128.947 82.3698 128.686 82.6052C128.425 82.8406 128.113 83.0122 127.774 83.1065C127.269 83.269 126.742 83.3584 126.211 83.3719C124.252 83.6898 122.26 83.7592 120.283 83.5784Z" fill="#263238"/>
<path d="M109.636 86.2925C110.226 86.2925 110.314 90.1855 113.735 92.8988C117.156 95.612 121.344 95.1401 121.403 95.7005C121.462 96.2608 120.459 96.4673 118.69 96.5557C116.386 96.6318 114.129 95.8901 112.32 94.4618C110.579 93.0838 109.438 91.0869 109.135 88.8879C108.958 87.2363 109.371 86.2925 109.636 86.2925Z" fill="#263238"/>
<path d="M106.627 38.3092C106.302 39.2824 102.645 38.8991 98.3983 39.4889C94.1514 40.0788 90.7304 41.2879 90.1406 40.4326C89.5507 39.5774 90.4649 39.076 91.851 38.0733C93.6698 36.8549 95.7523 36.0867 97.9265 35.8319C100.098 35.5289 102.311 35.7411 104.385 36.4512C105.978 37.0706 106.774 37.8373 106.627 38.3092Z" fill="#263238"/>
<path d="M140.751 45.0035C140.131 45.8293 137.624 45.0035 134.616 45.0035C131.608 45.0035 129.072 45.6523 128.452 44.8265C127.833 44.0008 128.452 43.5584 129.691 42.7621C131.149 41.7709 132.883 41.2651 134.646 41.317C136.41 41.3139 138.131 41.8602 139.571 42.88C140.662 43.8238 141.016 44.6791 140.751 45.0035Z" fill="#263238"/>
<path d="M119.813 1.73795C111.467 -1.56515 103.003 0.174889 94.1258 1.47254C87.2887 2.33597 80.7833 4.92384 75.2214 8.99296C70.9248 12.3712 67.4428 16.6725 65.0333 21.5784C62.6237 26.4843 61.3482 31.8693 61.3012 37.3348C60.8293 48.0691 62.013 58.8121 64.8108 69.1861L65.6955 68.9797C64.8971 71.6477 64.8461 74.4836 65.5481 77.1785C65.9515 78.5078 66.86 79.6261 68.0785 80.2932C69.297 80.9604 70.7285 81.1233 72.0658 80.747C75.015 79.4493 75.015 75.35 75.015 72.1059C74.2481 61.1876 74.2481 50.229 75.015 39.3108C75.4868 31.171 80.1171 21.1732 86.4874 17.3097C98.0778 9.58282 113.178 15.8941 118.28 16.7788C126.154 10.0547 133.498 15.3043 138.275 21.1437C136.27 12.3551 128.16 5.01157 119.813 1.73795Z" fill="#263238"/>
<path d="M118.012 16.7788C123.203 16.7788 127.331 13.2988 133.082 14.2426C136.562 14.8029 140.072 20.4948 143.11 27.5729C144.852 26.5221 146.242 24.9756 147.102 23.131C147.961 21.2864 148.251 19.2274 147.934 17.2172C147.618 15.207 146.709 13.3368 145.324 11.8456C143.94 10.3544 142.142 9.30991 140.16 8.84553C141.538 9.7371 143.123 10.2554 144.761 10.3496C145.575 10.3598 146.362 10.0612 146.964 9.51384C147.566 8.96652 147.938 8.21128 148.005 7.4004C147.911 6.80158 147.692 6.22935 147.362 5.72114C147.031 5.21292 146.598 4.78016 146.088 4.4512C140.853 0.304534 134.186 -1.59581 127.551 -0.832795C120.917 -0.0697817 114.855 3.29427 110.698 8.52111" fill="#263238"/>
<path d="M144.673 7.01771C144.673 7.22415 142.992 6.13297 140.19 5.24821C136.595 4.09095 132.726 4.09095 129.131 5.24821C125.543 6.54098 122.45 8.92297 120.283 12.0609C118.632 14.4792 118.13 16.2782 117.865 16.2192C117.897 14.5336 118.419 12.8937 119.369 11.5005C121.376 7.90056 124.636 5.16359 128.529 3.80971C132.422 2.45583 136.677 2.57939 140.485 4.15698C143.464 5.42514 144.791 6.89974 144.673 7.01771Z" fill="#455A64"/>
<path d="M143.582 24.8009C143.833 22.981 143.833 21.1353 143.582 19.3154C143.158 17.4065 142.267 15.633 140.987 14.1543C139.403 12.4185 137.357 11.1704 135.089 10.5563C132.951 10.0534 130.733 9.98753 128.569 10.3625C126.406 10.7376 124.34 11.5458 122.496 12.7387C119.546 14.5672 118.131 16.2187 117.954 16.0418C117.777 15.8648 118.986 14.0068 121.906 11.8539C123.63 10.592 125.568 9.65281 127.627 9.08172C130.198 8.40294 132.901 8.40294 135.472 9.08172C138.079 9.7439 140.418 11.1964 142.167 13.2401C143.552 14.9306 144.44 16.9726 144.733 19.1385C144.952 20.11 144.963 21.1169 144.764 22.093C144.566 23.069 144.163 23.9919 143.582 24.8009Z" fill="#455A64"/>
<path d="M59.5552 63.6718C59.5552 63.6718 59.2014 62.9345 58.9359 61.5189C58.558 59.5164 58.3801 57.4812 58.405 55.4435C58.3838 48.6574 60.0671 41.9746 63.3007 36.0083C66.5447 30.0452 71.2159 24.9789 76.8965 21.2623C78.5906 20.1153 80.3874 19.128 82.264 18.3131C82.9289 17.9448 83.6611 17.7141 84.417 17.6348C84.417 17.8707 81.4678 19.1094 77.4863 22.0881C72.1452 25.9059 67.7459 30.8923 64.6232 36.6675C61.5005 42.4426 59.7369 48.8543 59.4668 55.414C59.2308 60.5161 59.8207 63.6423 59.5552 63.6718Z" fill="#455A64"/>
<path d="M63.1567 66.6505C62.129 60.7241 62.585 54.6355 64.4839 48.9283C66.3829 43.2211 69.6657 38.0731 74.0392 33.9438C70.7484 38.7648 68.0268 43.9506 65.9289 49.3977C64.3381 55.0215 63.4077 60.8114 63.1567 66.6505Z" fill="#455A64"/>
<path d="M330.09 201.665C329.411 199.866 325.99 199.483 325.99 199.483L326.669 198.451C327.156 197.733 327.445 196.9 327.507 196.036C327.569 195.171 327.402 194.305 327.022 193.525L326.639 192.788C325.651 191.427 324.273 190.398 322.687 189.839C322.687 189.839 325.194 186.418 324.575 184.737C323.879 183.31 322.778 182.12 321.408 181.317C320.039 180.514 318.462 180.134 316.877 180.225C311.415 181.44 306.044 183.036 300.804 185.002C300.321 185.183 299.805 185.257 299.291 185.22C298.776 185.182 298.276 185.033 297.825 184.784C297.374 184.534 296.982 184.19 296.677 183.775C296.371 183.359 296.159 182.883 296.056 182.377C295.105 177.226 293.365 172.252 290.895 167.631C287.946 162.677 284.495 162.5 282.401 162.972C282.165 163.023 281.943 163.125 281.751 163.271C281.558 163.417 281.4 163.603 281.288 163.817C281.175 164.031 281.111 164.266 281.1 164.508C281.088 164.749 281.13 164.99 281.221 165.213C282.689 168.59 283.94 172.058 284.967 175.594C285.527 178.249 283.61 197.448 283.61 197.448L273.848 210.572L295.967 242.512L305.7 228.061L326.551 218.889C326.551 218.889 330.503 213.904 330.09 212.194C329.73 211.073 329.003 210.106 328.025 209.451L330.62 205.824C330.709 204.416 330.529 203.005 330.09 201.665Z" fill="#FFBE9D"/>
<path d="M324.545 190.369L324.132 190.635L322.835 191.372L318.087 194.026L311.009 197.86C309.652 198.568 308.295 199.394 306.732 200.043C305.938 200.449 305.059 200.661 304.166 200.661C303.274 200.661 302.395 200.449 301.601 200.043C300.819 199.523 300.253 198.737 300.008 197.831C299.801 196.968 299.801 196.069 300.008 195.206C300.42 193.611 301.368 192.205 302.692 191.225C303.835 190.324 305.048 189.516 306.319 188.806L309.534 186.889L314.223 184.117L315.521 183.409L315.963 183.173C315.963 183.173 315.963 183.173 315.55 183.498L314.312 184.294L309.711 187.243L306.526 189.219C305.293 189.933 304.11 190.732 302.987 191.608C301.762 192.559 300.881 193.885 300.48 195.383C300.254 196.16 300.269 196.987 300.521 197.755C300.774 198.523 301.253 199.198 301.895 199.689C302.596 200.116 303.405 200.331 304.225 200.308C305.037 200.268 305.835 200.089 306.585 199.777C308.089 199.158 309.534 198.332 310.802 197.654L317.939 193.879L322.776 191.402L324.103 190.723L324.545 190.369Z" fill="#EB996E"/>
<path d="M327.376 199.954C327.07 200.195 326.733 200.394 326.373 200.544C325.724 200.898 324.781 201.399 323.571 201.96C321.183 203.139 317.85 204.644 314.075 206.148C313.166 206.547 312.229 206.882 311.273 207.15C310.309 207.421 309.289 207.421 308.324 207.15C307.53 206.929 306.816 206.487 306.262 205.877C305.709 205.266 305.34 204.511 305.198 203.7C305.06 202.659 305.323 201.604 305.935 200.751C306.086 200.505 306.275 200.286 306.496 200.102L306.761 199.925C306.761 199.925 306.466 200.22 306.083 200.839C305.546 201.722 305.347 202.77 305.522 203.788C305.705 204.499 306.075 205.147 306.594 205.666C307.113 206.185 307.761 206.555 308.471 206.737C309.333 206.956 310.235 206.956 311.096 206.737C311.981 206.502 312.895 206.089 313.839 205.735C317.585 204.231 320.947 202.786 323.365 201.694L326.314 200.397C326.65 200.209 327.006 200.061 327.376 199.954Z" fill="#EB996E"/>
<path d="M328.468 209.038C328.167 209.217 327.838 209.347 327.495 209.422L324.723 210.336L315.522 213.108C314.607 213.344 313.752 213.639 312.838 213.787C311.964 213.981 311.053 213.919 310.213 213.61C309.823 213.462 309.469 213.233 309.174 212.938C308.879 212.643 308.65 212.289 308.502 211.899C308.282 211.219 308.282 210.486 308.502 209.805C308.864 208.86 309.541 208.068 310.419 207.564C310.714 207.358 311.044 207.208 311.393 207.121C311.118 207.332 310.832 207.529 310.537 207.711C309.761 208.256 309.174 209.029 308.856 209.923C308.656 210.526 308.656 211.178 308.856 211.781C308.987 212.11 309.19 212.406 309.45 212.646C309.711 212.886 310.022 213.064 310.36 213.167C311.141 213.393 311.969 213.393 312.749 213.167C313.575 213.167 314.46 212.725 315.345 212.489C318.943 211.427 322.216 210.483 324.576 209.864L327.525 209.097L328.468 209.038Z" fill="#EB996E"/>
<path d="M328.585 217.355C327.541 217.533 326.487 217.641 325.429 217.679L317.85 218.092H315.667C314.982 218.18 314.288 218.18 313.603 218.092C312.956 217.983 312.365 217.661 311.922 217.178C311.721 216.958 311.576 216.693 311.499 216.406C311.422 216.119 311.415 215.817 311.479 215.526C311.574 215.131 311.756 214.762 312.011 214.446C312.266 214.13 312.588 213.874 312.954 213.698C313.201 213.544 313.49 213.472 313.78 213.491C313.525 213.602 313.279 213.73 313.042 213.875C312.73 214.06 312.459 214.307 312.246 214.601C312.033 214.896 311.882 215.23 311.804 215.585C311.772 215.823 311.793 216.065 311.864 216.294C311.935 216.524 312.056 216.734 312.217 216.912C312.611 217.317 313.131 217.577 313.691 217.65C314.348 217.723 315.011 217.723 315.667 217.65H317.82C320.769 217.65 323.483 217.414 325.429 217.384C326.478 217.288 327.534 217.278 328.585 217.355Z" fill="#EB996E"/>
<path d="M308.588 210.158C306.868 209.525 305.09 209.061 303.28 208.772C301.448 208.667 299.61 208.746 297.794 209.008C299.558 208.343 301.453 208.101 303.328 208.3C305.202 208.5 307.004 209.137 308.588 210.158Z" fill="#EB996E"/>
<path d="M169.416 353.578L174.017 352.398C174.017 352.398 175.61 344.701 177.645 343.079C179.679 341.457 199.94 332.226 204.394 329.807C208.847 327.389 226.247 319.456 228.43 323.643C230.907 328.421 223.799 332.491 219.965 334.172C216.131 335.853 205.219 340.247 207.372 342.872C209.525 345.497 234.122 344.317 234.122 344.317L237.071 340.188C237.071 340.188 242.468 345.291 241.849 349.744C241.541 352.31 240.718 354.788 239.43 357.028H237.602C238.118 357.804 238.41 358.708 238.446 359.639C238.483 360.57 238.262 361.493 237.808 362.307C236.358 364.447 234.741 366.469 232.971 368.353C231.725 370.47 230.059 372.31 228.076 373.76C226.093 375.21 223.835 376.241 221.44 376.788C220.408 377.053 179.945 380.592 179.945 380.592L166.379 381.949L169.416 353.578Z" fill="#FFBE9D"/>
</g>
<defs>
<clipPath id="clip0_145_8439">
<rect width="331.531" height="515" fill="white"/>
</clipPath>
</defs>
</svg>
