<svg width="41" height="45" viewBox="0 0 41 45" fill="none" xmlns="http://www.w3.org/2000/svg">
<path d="M21.0048 44.365C18.6682 44.7701 16.2783 44.7546 13.9472 44.3193C11.1196 43.7463 8.48223 42.4682 6.27962 40.6033C4.07701 38.7384 2.38044 36.3472 1.34712 33.6513C0.1571 30.6454 -0.254085 27.3872 0.151825 24.1796C0.615838 21.2096 1.47091 18.3142 2.6947 15.569C3.8156 12.9443 5.2662 10.4733 7.01145 8.21572C8.6674 6.12649 10.6343 4.30437 12.8432 2.81314C15.0299 1.29785 17.561 0.354769 20.2054 0.0699441C23.1088 -0.176997 26.0306 0.231842 28.7551 1.26628C29.306 1.47474 29.83 1.74846 30.3158 2.08162L31.8385 3.07984L33.0338 4.02472C33.2483 4.16594 33.4385 4.34092 33.5972 4.54288C34.0678 4.86199 34.4662 5.27651 34.7666 5.75958C35.0669 6.24265 35.2625 6.78348 35.3407 7.34704C36.4735 10.6811 37.3491 14.0973 37.9597 17.5655C38.5992 21.1672 39.0661 24.5682 39.3605 27.7686C39.6549 30.969 40.0914 34.3422 40.67 37.888C40.7669 38.421 40.7491 38.9686 40.6178 39.4942C40.4865 40.0198 40.2448 40.5113 39.9087 40.936C39.5891 41.3812 39.1829 41.7571 38.7145 42.0412C38.2461 42.3254 37.7253 42.5119 37.1831 42.5895C36.6433 42.6869 36.089 42.6693 35.5565 42.538C35.0239 42.4068 34.525 42.1647 34.0921 41.8275C33.655 41.5196 33.2841 41.1268 33.0016 40.6726C32.7191 40.2183 32.5307 39.7119 32.4476 39.1834L32.3029 37.949C31.0231 39.6898 29.4077 41.1563 27.5522 42.2619C25.5011 43.321 23.2886 44.0317 21.0048 44.365ZM24.8875 34.3904C25.4881 34.0217 26.0676 33.6198 26.6234 33.1865C27.3781 32.5945 28.0905 31.9503 28.7551 31.2586C29.5404 30.4533 30.1954 29.5304 30.6965 28.523C30.8071 28.3855 30.9322 28.2604 31.0696 28.1496C30.2016 20.7278 29.0368 14.8197 27.5751 10.4255C27.3851 10.2263 27.1816 10.0404 26.966 9.86926C26.8036 9.74371 26.6485 9.60886 26.5016 9.46541C26.3979 9.35787 26.2736 9.27234 26.1361 9.21394L25.6489 8.97773C24.2997 8.42525 22.8354 8.2141 21.3853 8.36296C19.9352 8.51182 18.5441 9.01609 17.3351 9.83116C14.5791 11.5177 12.3205 14.3295 10.5592 18.2665C8.79802 22.2035 8.09509 25.5868 8.45038 28.4163C8.58853 29.7293 9.01681 30.9951 9.70418 32.122C10.3915 33.2488 11.3208 34.2085 12.4245 34.9314C13.9029 35.854 15.6082 36.3473 17.3504 36.3564C19.2836 36.4068 21.205 36.0403 22.9842 35.282C23.6397 35.0319 24.2758 34.734 24.8875 34.3904Z" fill="#E0E0E0"/>
</svg>
